HIERARCHY
ROOT Hips
{
	OFFSET 0.000000 0.000000 0.000000
	CHANNELS 6 Xposition Yposition Zposition Zrotation Yrotation Xrotation 
	JOINT LeftUpLeg_virtual
	{
		OFFSET 0.000000 0.000000 0.000000
		CHANNELS 3 Zrotation Yrotation Xrotation
		JOINT LeftUpLeg
		{
			OFFSET 8.479694 -4.795517 -0.379053
			CHANNELS 3 Zrotation Yrotation Xrotation
			JOINT LeftLeg
			{
				OFFSET 0.485052 -32.551468 0.112863
				CHANNELS 3 Zrotation Yrotation Xrotation
				JOINT LeftFoot
				{
					OFFSET 0.438033 -32.635670 -3.012641
					CHANNELS 3 Zrotation Yrotation Xrotation
					JOINT LeftToeBase
					{
						OFFSET 0.970169 -13.225353 11.864223
						CHANNELS 3 Zrotation Yrotation Xrotation
						End Site
						{
							OFFSET 0.000000 0.000000 0.000000
						}
					}
				}
			}
		}
	}
	JOINT RightUpLeg_virtual
	{
		OFFSET 0.000000 0.000000 0.000000
		CHANNELS 3 Zrotation Yrotation Xrotation
		JOINT RightUpLeg
		{
			OFFSET -8.479694 -4.795517 -0.379053
			CHANNELS 3 Zrotation Yrotation Xrotation
			JOINT RightLeg
			{
				OFFSET -0.484100 -32.551483 0.112903
				CHANNELS 3 Zrotation Yrotation Xrotation
				JOINT RightFoot
				{
					OFFSET -0.438985 -32.635651 -3.012681
					CHANNELS 3 Zrotation Yrotation Xrotation
					JOINT RightToeBase
					{
						OFFSET -0.970169 -13.225354 11.864223
						CHANNELS 3 Zrotation Yrotation Xrotation
						End Site
						{
							OFFSET 0.000000 0.000000 0.000000
						}
					}
				}
			}
		}
	}
	JOINT Spine_virtual
	{
		OFFSET 0.000000 0.000000 0.000000
		CHANNELS 3 Zrotation Yrotation Xrotation
		JOINT Spine
		{
			OFFSET 0.000000 7.722015 1.166203
			CHANNELS 3 Zrotation Yrotation Xrotation
			JOINT Spine1
			{
				OFFSET 0.000000 12.024086 0.248766
				CHANNELS 3 Zrotation Yrotation Xrotation
				JOINT Spine2
				{
					OFFSET -0.000000 11.503036 -0.491240
					CHANNELS 3 Zrotation Yrotation Xrotation
					JOINT Neck_virtual
					{
						OFFSET 0.000000 0.000000 0.000000
						CHANNELS 3 Zrotation Yrotation Xrotation
						JOINT Neck
						{
							OFFSET 0.000000 18.430687 -3.123054
							CHANNELS 3 Zrotation Yrotation Xrotation
							JOINT Head
							{
								OFFSET -0.000000 9.051071 1.034021
								CHANNELS 3 Zrotation Yrotation Xrotation
								End Site
								{
									OFFSET 0.000000 0.000000 0.000000
								}
							}
						}
					}
					JOINT LeftShoulder_virtual
					{
						OFFSET 0.000000 0.000000 0.000000
						CHANNELS 3 Zrotation Yrotation Xrotation
						JOINT LeftShoulder
						{
							OFFSET 6.197824 13.665230 -4.064723
							CHANNELS 3 Zrotation Yrotation Xrotation
							JOINT LeftArm
							{
								OFFSET 7.778132 -0.187073 -1.709282
								CHANNELS 3 Zrotation Yrotation Xrotation
								JOINT LeftForeArm
								{
									OFFSET 21.954697 0.000000 -2.041093
									CHANNELS 3 Zrotation Yrotation Xrotation
									JOINT LeftHand
									{
										OFFSET 22.992908 0.000000 -0.870901
										CHANNELS 3 Zrotation Yrotation Xrotation
										End Site
										{
											OFFSET 0.000000 0.000000 0.000000
										}
									}
								}
							}
						}
					}
					JOINT RightShoulder_virtual
					{
						OFFSET 0.000000 0.000000 0.000000
						CHANNELS 3 Zrotation Yrotation Xrotation
						JOINT RightShoulder
						{
							OFFSET -6.197824 13.665230 -4.064723
							CHANNELS 3 Zrotation Yrotation Xrotation
							JOINT RightArm
							{
								OFFSET -7.778132 -0.187073 -1.709282
								CHANNELS 3 Zrotation Yrotation Xrotation
								JOINT RightForeArm
								{
									OFFSET -21.954697 0.000000 -2.041093
									CHANNELS 3 Zrotation Yrotation Xrotation
									JOINT RightHand
									{
										OFFSET -22.992908 0.000000 -0.870901
										CHANNELS 3 Zrotation Yrotation Xrotation
										End Site
										{
											OFFSET 0.000000 0.000000 0.000000
										}
									}
								}
							}
						}
					}
				}
			}
		}
	}
}
MOTION
Frames: 8
Frame Time: 0.033333
49.306442 81.340309 -18.010963 -178.894457 -55.506687 179.298954 -5.700957 -1.539951 10.003958 2.258915 -2.854819 -25.041828 7.546953 4.347777 31.017914 -4.505895 -8.178233 -8.530123 0.000000 0.000000 0.000000 -2.141333 -1.128573 9.647812 -7.928720 10.606352 -34.577532 -2.222373 6.395981 38.720144 13.550342 9.290860 0.237641 0.000000 0.000000 0.000000 -1.915671 0.246189 -0.611509 1.569596 0.865800 0.569556 -1.159707 -2.052137 7.368392 -0.097015 -0.118001 0.058573 -1.492251 -0.855740 8.116738 3.892303 -3.304533 -1.063228 0.000000 0.000000 0.000000 0.310941 -0.645137 5.205992 -2.496107 -5.103151 6.498519 -43.780529 -9.788114 39.978111 -150.731196 -87.064483 177.907098 0.000000 0.000000 0.000000 -4.557185 1.374089 3.819450 24.590926 7.405529 9.238974 52.741853 0.122094 27.209882 -166.977840 76.501889 -167.955772 0.000000 0.000000 0.000000 
49.692165 81.400726 -16.996075 -179.300238 -54.030539 179.468876 -6.084783 -1.431178 10.331067 2.002925 -2.493957 -25.618298 7.590425 5.053641 30.428199 -4.041249 -7.836699 -7.893627 0.000000 0.000000 0.000000 -1.952297 -1.095480 9.716905 -7.491928 9.132427 -34.732881 -2.233960 5.991520 36.753309 13.285226 9.038789 0.499986 0.000000 0.000000 0.000000 -2.280362 0.346044 -0.099951 1.331591 0.803101 0.644495 -1.135310 -2.148392 7.430903 -0.046134 -0.176458 0.003928 -1.385107 -0.803816 8.202471 3.792586 -3.073209 -1.110537 0.000000 0.000000 0.000000 0.314954 -0.517716 5.102294 -2.396097 -5.191370 6.606449 -43.278186 -10.157357 40.795234 -158.295235 -87.339787 -174.171340 0.000000 0.000000 0.000000 -4.546363 1.472632 3.812540 24.196292 7.639309 9.172373 52.850754 0.185780 27.895196 -166.945342 76.798094 -168.006411 0.000000 0.000000 0.000000 
50.108532 81.479248 -16.187397 -179.728478 -51.747863 179.739324 -6.386074 -1.306689 10.676271 1.809276 -2.195075 -26.153252 7.648010 6.045566 29.806327 -3.431501 -7.412555 -7.289942 0.000000 0.000000 0.000000 -1.769837 -1.808109 9.027610 -6.594825 7.252360 -34.023385 -2.146164 4.715915 35.656712 11.991772 8.192291 -0.550663 0.000000 0.000000 0.000000 -2.621674 0.676137 0.272298 1.073688 0.973702 0.571718 -1.132141 -1.889425 7.477983 -0.069296 -0.027631 0.012247 -1.214951 -0.610257 8.146971 3.784335 -3.016641 -1.145577 0.000000 0.000000 0.000000 0.392214 -0.409130 5.033816 -2.376502 -5.444836 6.527844 -42.785053 -10.489081 41.134705 -163.054538 -87.497981 -169.097520 0.000000 0.000000 0.000000 -4.376153 1.575515 3.777449 23.946203 7.766615 9.231153 52.775232 0.198154 28.269274 -165.974977 76.894488 -167.096712 0.000000 0.000000 0.000000 
50.585495 81.515358 -15.577400 179.951319 -50.281162 -179.956032 -6.545733 -1.238264 10.918562 1.747388 -2.309677 -26.751233 7.700609 6.784419 29.346184 -2.722593 -6.928622 -6.709564 0.000000 0.000000 0.000000 -1.601800 -2.581716 9.841543 -5.341126 4.457597 -34.519305 -2.093360 3.231535 37.166211 10.359880 7.394462 -4.016197 0.000000 0.000000 0.000000 -2.858243 0.686286 0.497865 0.825150 1.006739 0.336069 -1.158140 -1.767133 7.480719 -0.011242 -0.069074 -0.018400 -1.175709 -0.550974 8.119041 3.741516 -2.916380 -1.141114 0.000000 0.000000 0.000000 0.388977 -0.311484 5.007152 -2.455568 -5.433911 6.457798 -42.594911 -10.856395 41.399313 -168.234963 -87.554235 -163.653341 0.000000 0.000000 0.000000 -4.326337 1.667753 3.791077 23.679429 7.801802 9.266690 52.755643 0.089230 28.219683 -164.983288 76.909071 -166.090776 0.000000 0.000000 0.000000 
51.142078 81.506065 -15.083555 -179.961756 -48.932507 -179.997287 -6.468518 -1.217280 11.079515 1.887651 -2.748527 -27.399789 7.741165 6.970892 29.098057 -1.954012 -6.417905 -6.297333 0.000000 0.000000 0.000000 -1.645218 -2.553089 10.055067 -4.255733 2.421425 -33.656734 -1.824884 2.744669 40.074530 9.954623 7.750975 -6.434991 0.000000 0.000000 0.000000 -2.854719 0.522270 0.646062 0.675453 1.029462 0.053103 -1.163554 -1.645048 7.474588 -0.005605 -0.020277 0.001771 -1.266385 -0.469388 8.050911 3.617793 -2.777891 -1.080242 0.000000 0.000000 0.000000 0.275762 -0.145725 4.971118 -2.526658 -5.351483 6.475410 -42.611781 -11.254519 41.627571 -173.000332 -87.528758 -158.676714 0.000000 0.000000 0.000000 -4.413188 1.773393 3.728715 23.545465 7.866255 9.333914 52.788268 -0.005970 28.126005 -164.002650 76.864504 -165.073651 0.000000 0.000000 0.000000 
51.780983 81.474800 -14.644409 179.989118 -48.122644 179.897429 -6.418834 -1.450118 11.253519 1.974920 -3.339393 -27.977568 7.745546 6.937989 29.078561 -1.192718 -5.891814 -5.847704 0.000000 0.000000 0.000000 -1.794390 -3.052017 10.292937 -3.663567 1.430238 -32.473807 -1.343626 3.011672 43.126357 9.962113 8.396926 -6.817871 0.000000 0.000000 0.000000 -2.788446 0.237065 0.799064 0.483191 1.036726 -0.181493 -1.224119 -1.589402 7.498186 -0.020088 -0.044153 -0.010899 -1.264911 -0.285561 7.923979 3.543953 -2.672262 -1.050213 0.000000 0.000000 0.000000 0.294811 -0.122867 4.797487 -2.784568 -5.177183 6.461524 -42.820310 -11.442043 41.730041 -176.914522 -87.490946 -154.631835 0.000000 0.000000 0.000000 -4.414104 1.839452 3.640220 23.560761 7.860786 9.429272 52.667910 -0.073454 27.984675 -163.262982 76.939513 -164.284436 0.000000 0.000000 0.000000 
52.530041 81.424789 -14.233361 179.962780 -47.384584 179.998557 -6.215481 -1.591350 11.344394 2.109823 -3.989155 -28.818112 7.663388 6.767185 29.059433 -0.494578 -5.365351 -5.248556 0.000000 0.000000 0.000000 -1.904848 -3.216095 10.377701 -2.918501 0.308346 -31.079628 -1.179478 2.893913 45.640328 9.653432 8.615152 -7.665386 0.000000 0.000000 0.000000 -2.659280 -0.018657 0.734362 0.278945 1.130029 -0.558857 -1.263095 -1.486685 7.467867 -0.027793 -0.012468 -0.018096 -1.316946 -0.232882 7.874104 3.358906 -2.540505 -0.989972 0.000000 0.000000 0.000000 0.232589 -0.033990 4.770506 -3.039149 -4.996598 6.463928 -43.291744 -11.539862 41.759073 178.139420 -87.500795 -149.642765 0.000000 0.000000 0.000000 -4.447070 1.943872 3.589151 23.529380 7.856138 9.535095 52.619852 -0.133564 28.118554 -162.179044 77.006449 -163.063076 0.000000 0.000000 0.000000 
53.368752 81.378395 -13.845338 179.968368 -47.009399 -179.958163 -6.032341 -1.869640 11.793253 2.283670 -4.205969 -30.133992 7.604525 6.430518 29.151951 -0.014246 -4.985940 -4.377860 0.000000 0.000000 0.000000 -1.863206 -3.543844 10.514048 -2.278857 -0.750433 -29.366637 -1.019413 2.802081 47.244097 9.369545 8.708858 -8.203974 0.000000 0.000000 0.000000 -2.432881 -0.337999 0.644946 0.111879 1.204308 -0.921299 -1.277990 -1.428986 7.445126 -0.033303 -0.007445 -0.031332 -1.318359 -0.153840 7.844579 3.200163 -2.395269 -0.980954 0.000000 0.000000 0.000000 0.232525 0.013123 4.739958 -3.403323 -4.721698 6.465518 -43.774529 -11.364728 41.619628 173.791759 -87.525432 -145.352955 0.000000 0.000000 0.000000 -4.431611 2.007872 3.549075 23.611791 7.889306 9.665624 52.487965 -0.037709 28.376834 -161.595896 76.982400 -162.373923 0.000000 0.000000 0.000000 
